<svg width="24" height="24" viewBox="0 0 24 24" xmlns="http://www.w3.org/2000/svg"><title>android-icon</title><path d="M6 17.975c0 .6.4 1 1 1h1v3.5c0 .8.7 1.5 1.5 1.5s1.5-.7 1.5-1.5v-3.5h2v3.5c0 .8.7 1.5 1.5 1.5s1.5-.7 1.5-1.5v-3.5h1c.6 0 1-.4 1-1v-10H6v10zm-2.5-10c-.8 0-1.5.7-1.5 1.5v7c0 .8.7 1.5 1.5 1.5s1.5-.7 1.5-1.5v-7c0-.8-.7-1.5-1.5-1.5zm17 0c-.8 0-1.5.7-1.5 1.5v7c0 .8.7 1.5 1.5 1.5s1.5-.7 1.5-1.5v-7c0-.8-.7-1.5-1.5-1.5zm-5-5.8l1.3-1.3c.2-.2.2-.5 0-.7-.2-.2-.5-.2-.7 0l-1.5 1.5c-.7-.5-1.6-.7-2.6-.7s-1.9.2-2.7.6L7.9.075c-.2-.1-.6-.1-.8 0-.1.2-.1.6 0 .8l1.3 1.3C7 3.275 6 4.975 6 6.975h12c0-2-1-3.8-2.5-4.8zm-5.5 2.8H9v-1h1v1zm5 0h-1v-1h1v1z" fill="#FFF" fill-rule="evenodd"/></svg>