<svg width="24" height="24" viewBox="0 0 24 24" xmlns="http://www.w3.org/2000/svg"><title>apple-icon</title><g fill="#FFF" fill-rule="evenodd"><path d="M18.685 12.218c-.026-2.695 2.388-4.007 2.498-4.068-1.367-1.842-3.486-2.094-4.23-2.114-1.78-.173-3.507.984-4.413.984-.925 0-2.32-.967-3.825-.939-1.937.028-3.748 1.064-4.741 2.673-2.05 3.281-.522 8.103 1.443 10.755.982 1.299 2.13 2.749 3.633 2.698 1.47-.056 2.02-.867 3.794-.867 1.758 0 2.274.867 3.806.834 1.578-.023 2.572-1.304 3.52-2.615 1.135-1.489 1.591-2.955 1.61-3.03-.038-.012-3.065-1.08-3.095-4.31zM15.505 4.42c.791-.914 1.332-2.158 1.182-3.42-1.145.047-2.576.732-3.4 1.626-.73.788-1.38 2.08-1.213 3.293 1.286.09 2.606-.6 3.431-1.5z"/></g></svg>