<svg width="114" height="25" viewBox="0 0 114 25" xmlns="http://www.w3.org/2000/svg"><title>Group</title><g fill="none" fill-rule="evenodd"><path d="M55.356 3.516a1.98 1.98 0 0 0-1.271.579l-5.532 5.532-5.533-5.532a1.98 1.98 0 0 0-1.172-.57 1.973 1.973 0 0 0-2.234 1.96v14.03c0 1.084.887 1.976 1.98 1.976 1.102 0 1.981-.884 1.981-1.976v-9.263l3.556 3.555a1.98 1.98 0 0 0 1.422.584 1.98 1.98 0 0 0 1.422-.584l3.57-3.57v9.278c0 1.084.887 1.976 1.98 1.976 1.102 0 1.981-.884 1.981-1.976V5.485a1.983 1.983 0 0 0-2.15-1.97z" fill="#3C4040"/><rect fill="#3C4040" x="63.822" y="3.509" width="3.961" height="17.982" rx="1.981"/><path d="M82.885 14.39a1.98 1.98 0 0 1-1.422-.583l-3.556-3.555v9.263c0 1.092-.879 1.976-1.98 1.976a1.983 1.983 0 0 1-1.981-1.976V5.485a1.973 1.973 0 0 1 2.234-1.96c.428.05.843.24 1.172.57l5.533 5.532 5.532-5.532a1.98 1.98 0 0 1 1.27-.58 1.983 1.983 0 0 1 2.15 1.969l.001 14.031c0 1.092-.879 1.976-1.98 1.976a1.983 1.983 0 0 1-1.981-1.976v-9.278l-3.57 3.57a1.98 1.98 0 0 1-1.422.584zM105.417 21.491c4.74 0 8.583-4.025 8.583-8.991 0-4.966-3.843-8.991-8.583-8.991s-8.583 4.025-8.583 8.991c0 4.966 3.843 8.991 8.583 8.991zm0-3.764c2.66 0 4.815-2.34 4.815-5.227 0-2.887-2.156-5.227-4.815-5.227-2.66 0-4.815 2.34-4.815 5.227 0 2.887 2.156 5.227 4.815 5.227z" fill="#3C4040"/><rect fill="#00CD6F" width="7.923" height="3.947" rx="1.974"/><rect fill="#00CD6F" x="5.722" y="7.018" width="18.486" height="3.947" rx="1.974"/><rect fill="#00CD6F" y="14.035" width="14.525" height="3.947" rx="1.974"/><rect fill="#00CD6F" x="16.286" y="14.035" width="7.923" height="3.947" rx="1.974"/><rect fill="#00CD6F" x="9.83" width="14.525" height="3.947" rx="1.974"/><rect fill="#00CD6F" y="21.053" width="24.208" height="3.947" rx="1.974"/><rect fill="#00CD6F" y="7.018" width="3.961" height="3.947" rx="1.974"/></g></svg>