<svg width="164" height="27" viewBox="0 0 164 27" xmlns="http://www.w3.org/2000/svg"><title>Artboard</title><g fill="#CBCBCB" fill-rule="evenodd"><path d="M10.546 4.01a.878.878 0 0 0-.447.14c.593.12 1.287.2 1.66.747.188.202.13.511-.057.688-.355.428-.963.562-1.484.425C8.454 5.59 6.785 4.77 4.972 4.555c-.971-.13-1.92.344-2.59 1.028-.62.628-.844 1.581-.722 2.443.137.68.636 1.389 1.357 1.489-.427-.47-.508-1.286-.065-1.774.25-.315.696-.358 1.066-.3 1.405.264 2.774.692 4.175.98.785.217 1.56.475 2.363.622.014.97.014 1.94 0 2.91-.518.391-1.012.812-1.52 1.216.494.375 1.004.726 1.515 1.077.033 1.372-.005 2.744.02 4.116-.837.654-1.957.76-2.975.64-1.08-.062-2.04-.713-2.748-1.505a91.633 91.633 0 0 1 3.61-1.833c.043-2.164.008-4.328.02-6.493-1.517.644-3.019 1.322-4.53 1.976.436-1.132 1.325-2.048 2.386-2.593-.277.017-.567-.004-.826.118-1.985.793-3.62 2.498-4.236 4.579-.412 1.32-.28 2.765.167 4.057.554 1.437 1.578 2.71 2.936 3.436.762.399 1.582.773 2.456.784 1.81.152 3.713-.539 4.934-1.917.533-.58.801-1.334 1.065-2.065.245-.72.356-1.485.33-2.246-.585 1.176-1.364 2.28-2.427 3.06.007-1.368-.003-2.734.002-4.102.463-.357.927-.713 1.374-1.089-.459-.411-.915-.823-1.374-1.236.002-.961-.002-1.925 0-2.885 1.034-.055 2.225-.608 2.503-1.706.195-.716.296-1.565-.138-2.214-.4-.46-.917-.86-1.525-.97-.336-.03-.691-.165-1.03-.148zm-4.839 6.594c-.003 2.084.013 4.168-.007 6.252-.344.136-.682.286-1.02.437-.623-.913-1.01-1.988-1.19-3.08-.048-.92.121-1.853.438-2.717.598-.288 1.183-.6 1.78-.892zM124.322 4.01a.747.747 0 0 0-.483.14c.35.082.72.116 1.047.283.29.141.484.434.585.737.054.327-.183.629-.466.752-.51.238-1.087.128-1.605-.015-1.243-.385-2.454-.884-3.722-1.184-.652-.141-1.335-.274-1.993-.099-.714.204-1.438.55-1.86 1.195-.544.71-.612 1.688-.347 2.524.219.557.661 1.105 1.287 1.177-.204-.266-.555-.533-.454-.912.056-.375.21-.756.507-1 .297-.227.704-.224 1.049-.123 1.264.238 2.499.597 3.748.897.847.182 1.66.502 2.513.661.015.966.004 1.933.007 2.9-.458.41-.916.82-1.369 1.236.457.357.905.723 1.367 1.072.007 1.375-.002 2.752.007 4.129-.802.608-1.857.758-2.83.621-1.075-.065-2.015-.72-2.73-1.494.293-.206.627-.339.943-.506.887-.443 1.764-.906 2.658-1.332.028-2.166.004-4.332.012-6.498-1.507.65-3.002 1.33-4.515 1.966.345-.83.898-1.59 1.64-2.099.223-.205.448-.42.753-.491-.305.021-.62.01-.898.154-2.131.873-3.95 2.778-4.35 5.117-.153 1.188-.044 2.421.366 3.547.526 1.32 1.45 2.495 2.654 3.244a7.95 7.95 0 0 0 1.84.838c1.546.26 3.204.035 4.557-.797.892-.63 1.721-1.447 2.095-2.506.401-.9.562-1.882.583-2.863-.187.246-.296.54-.454.803-.514.873-1.179 1.664-1.989 2.269.01-1.372-.012-2.743.012-4.115.459-.335.89-.708 1.35-1.042-.425-.446-.908-.831-1.36-1.248-.008-.961.011-1.924-.009-2.885.889-.058 1.787-.462 2.265-1.251.497-.811.494-1.916.015-2.733-.378-.505-.972-.83-1.586-.924-.275-.023-.562-.137-.84-.145zm-4.877 6.591c.012 2.08 0 4.16.005 6.24-.35.149-.697.305-1.047.455-.506-.722-.901-1.533-1.104-2.396-.224-1.13-.165-2.356.354-3.4.602-.29 1.196-.595 1.792-.899zM47.223 4.703c.58 1.026.217 2.417-.654 3.156-.535.353-1.15.548-1.754.746.014 4.197.002 8.396.004 12.593.043.192-.131.343-.31.266-.352-.017-.446-.393-.595-.647-2.17-4.038-4.316-8.09-6.503-12.12-.041 2.964 0 5.93-.02 8.896 1.033.197 2.04.702 2.715 1.533.314-.246.517-.678.919-.777-.102.187-.25.342-.392.499-.782.876-1.562 1.756-2.343 2.634-.362-.462-.845-.9-1.449-.964-.397-.016-.856.005-1.146.323-.333.3-.556.808-.318 1.237.279.617.98.784 1.57.931-.738.148-1.564.061-2.16-.44-.473-.41-.904-.93-1.027-1.564-.166-.875.092-1.847.738-2.468.706-.706 1.741-.97 2.71-.914.027-1.292.015-2.583.006-3.875-.47-.076-1.113-.008-1.332.49-.127.405.172.745.468.966-.367-.065-.775-.136-1.04-.424-.313-.39-.556-.851-.646-1.349-.09-.64.076-1.369.602-1.78.55-.432 1.284-.491 1.956-.476v-2.73c-.244-.371-.478-.796-.896-.988-.274-.115-.632-.156-.868.06-.326.28-.404.726-.534 1.116-.125-.952-.03-2.033.629-2.78.796-1.044 2.48-1.082 3.352-.117.377.392.635.876.891 1.353 1.612 2.906 3.192 5.83 4.82 8.726.01-2.401.016-4.805-.001-7.206-.28-.11-.591-.108-.876-.208-.53-.141-.972-.487-1.364-.862-.245.291-.492.581-.72.885l-.213-.117c.836-1.066 1.73-2.083 2.6-3.121.455.485 1.05.882 1.728.927.708-.083 1.404-.656 1.453-1.41zM101.432 7.028c1.165-.769 2.329-1.545 3.498-2.307.01 4.535-.009 9.072.01 13.608.252.348.597.634.903.94.192-.209.392-.408.59-.61.047.047.14.142.188.188-.934.819-1.838 1.67-2.777 2.48-.591-.615-1.203-1.208-1.79-1.825-.263.237-.503.496-.751.749l-.202-.158c.448-.434.927-.831 1.38-1.26-.004-3.438.003-6.876-.004-10.313-.01-.643-.334-1.413-1.045-1.492zM14.419 7.161c1.003-.756 1.987-1.54 2.99-2.295.005 2.499 0 4.999.004 7.499.85-.71 1.706-1.41 2.547-2.13.675.708 1.305 1.461 2 2.147.293-.213.595-.415.902-.606-.055.396-.523.532-.766.808.003 1.366 0 2.732.001 4.098.02 1.022-.126 2.036-.156 3.057-.046 1.107-.47 2.238-1.323 2.965-.693.627-1.641.853-2.545.929l-.065.088.024-.08c-.312 0-.622-.012-.933-.036.39-.204.832-.335 1.14-.673.353-.4.765-.78.939-1.302.285-.796.293-1.654.321-2.49-.007-1.873.01-3.746-.008-5.618-.412-.544-.905-1.024-1.342-1.548-.24.258-.526.475-.73.762-.017 1.933-.003 3.867-.007 5.8.247.25.494.5.743.748l.6-.612.178.177c-.97.769-1.932 1.55-2.903 2.317-.615-.552-1.215-1.12-1.82-1.684-.203.153-.406.309-.61.461l-.173-.185c.466-.303.924-.621 1.385-.93V8.517c-.01-.262.003-.545-.134-.78-.09-.178-.294-.235-.447-.344-.034-.114.127-.162.188-.233zM81.303 5.337c-.913.748-1.806 1.52-2.71 2.278-.01-.715.012-1.43-.012-2.145-.14-.007-.201.057-.182.191-.005 5.06.002 10.117-.002 15.176a43.674 43.674 0 0 1-1.476-.307c-.008-4.266 0-8.532-.003-12.8-.01-.539-.183-1.082-.534-1.494-.437-.524-1.12-.767-1.78-.813-.781-.023-1.498.393-2.044.929-.502.483-.771 1.229-.628 1.922.06-.43.2-.914.59-1.153.428-.185.998-.036 1.255.371.22.329.241.74.25 1.123.002 1.154-.001 2.307 0 3.46-.752.013-1.64.135-2.074.841-.437.553-.572 1.336-.271 1.986.197.643.857.974 1.47 1.076-.343-.225-.693-.62-.49-1.061.273-.443.894-.507 1.355-.379.018 2.047.01 4.093.005 6.14-.69.243-1.36.666-1.729 1.324-.268.469-.275 1.03-.252 1.556.082.922.683 1.764 1.49 2.185.61.289 1.297.297 1.957.275 1.874-.113 3.655-.866 5.533-.93.56-.041.887.584.74 1.075-.111.443-.478.743-.825 1.003.66-.142 1.316-.393 1.83-.846.581-.498.848-1.302.811-2.057-.043-.747-.639-1.303-1.257-1.624-.815-.484-1.799-.376-2.695-.278-1.684.197-3.325.738-5.025.784a1.193 1.193 0 0 1-1.231-.946c-.13-.552.312-1.034.76-1.27.969-.464 2.084-.292 3.095-.077 1.172.124 2.272.608 3.445.73.666.077 1.374-.053 1.92-.462.564-.352.818-1.038.833-1.684.007-4.026-.007-8.052.007-12.079.364-.32.764-.606 1.08-.976-.442.112-.72.532-1.082.79-.716-.603-1.416-1.222-2.124-1.834zm-1.986 2.035c.408.354.81.715 1.216 1.071.001 1.269-.003 2.537 0 3.805-.193.192-.404.396-.687.432-.46.099-.908-.132-1.255-.42.002-1.48 0-2.96 0-4.44.243-.148.485-.296.726-.448zm-.726 5.24c.596.306 1.363.4 1.942.002-.002.575-.002 1.153 0 1.728-.235-.232-.537-.417-.874-.416-.396-.008-.76.18-1.068.416.002-.576-.001-1.153 0-1.73zm1.063 1.496c.385.01.68.3.88.607-.004 1.606 0 3.212 0 4.817.03.493-.305.914-.671 1.197-.353.284-.833.294-1.262.27-.025-2.096-.001-4.197-.01-6.294.278-.305.63-.603 1.063-.597zM127.462 7.954c.63-.559 1.222-1.158 1.865-1.7.544.58 1.117 1.133 1.67 1.705a190.26 190.26 0 0 1-2.003 1.87c-.508-.629-1.03-1.242-1.532-1.875zM54.834 8.552c.393-.274.89-.257 1.345-.316-.343.274-.724.593-.77 1.066-.077.422.187.803.495 1.056.56.455 1.28.708 1.736 1.29.22.281.353.637.343.998-.003 1.907.002 3.813-.003 5.72.501.41 1.004.814 1.504 1.224l.438-.286c-.006-2.081.011-4.163-.008-6.243-.258-.308-.614-.528-.908-.802.722-.674 1.43-1.365 2.167-2.022.641.637 1.315 1.24 1.973 1.86-.25.268-.507.526-.77.78-.005 1.83 0 3.659-.003 5.488.656.515 1.312 1.032 1.976 1.539.093-.055.187-.11.283-.163-.01-2.235.001-4.468-.006-6.703-.304-.262-.618-.513-.918-.78.709-.679 1.426-1.345 2.14-2.019.709.563 1.42 1.125 2.126 1.692.245-.273.495-.544.775-.783.036.052.11.157.145.21a71.81 71.81 0 0 0-1.79 1.66c-.05 1.782 0 3.569-.024 5.351-1.537 1.023-3.142 1.956-4.702 2.95-.822-.596-1.621-1.225-2.433-1.836-.729.593-1.458 1.187-2.191 1.773-.105.118-.213-.054-.3-.103-.685-.557-1.366-1.12-2.06-1.664-.292.258-.598.498-.89.756-.047-.045-.138-.135-.185-.179.357-.25.705-.512 1.062-.762.002-1.727.002-3.453 0-5.18a1.906 1.906 0 0 0-.473-1.273c-.343-.376-.804-.64-1.077-1.082-.302-.513-.33-1.15-.214-1.722.17-.648.677-1.142 1.217-1.495zM162.911 9.785c.07.181.093.383.005.563-.214.496-.799.687-1.296.678-.52-.047-.927-.426-1.277-.784-.589.4-1.18.796-1.768 1.195-.677.462-1.426.803-2.177 1.12-.003.978 0 1.953-.003 2.93.549.463 1.113.905 1.651 1.381-.413.443-.82.891-1.209 1.354-.4.488-.778 1.051-.801 1.706-.023.744.291 1.55.942 1.944.287.17.637.323.971.192-.416-.15-.927-.456-.89-.969.115-.485.684-.81 1.157-.67.49.14.896.496 1.21.894 1.26-.92 2.587-1.74 3.966-2.465-.01-1.24.017-2.482-.012-3.72-.609-.433-1.19-.905-1.792-1.345.637-.817 1.278-1.681 1.544-2.704.1-.431.133-.975-.22-1.3zm-4.059 1.858c.41.595.95 1.173 1.692 1.295.74.176 1.456-.23 1.94-.769-.663 1.242-1.692 2.239-2.755 3.131-.288-.309-.597-.596-.882-.907.012-.916.002-1.834.005-2.75zm1.042 3.706c.318.272.633.548.951.821.146.089.075.273.095.413-.009 1.065.013 2.133-.012 3.197-.238-.544-.594-1.05-1.097-1.373-.73-.483-1.732-.511-2.474-.042-.34.19-.612.475-.87.764.369-.727.963-1.301 1.523-1.877.639-.624 1.278-1.246 1.884-1.903zM28.761 10.24c-.839.491-1.65 1.028-2.471 1.546-.696.367-1.404.714-2.105 1.071.003 1.991-.003 3.982.005 5.972-.3.235-.648.404-.92.674l.209.128c.235-.206.467-.415.725-.59.87.731 1.69 1.523 2.557 2.258l.172-.09c1.469-1.153 2.952-2.288 4.421-3.439l-.182-.162c-.818.645-1.613 1.324-2.423 1.978-.669-.61-1.316-1.243-1.983-1.855-.228-.168-.1-.487-.117-.725 1.37-1.016 2.741-2.032 4.09-3.075a239.609 239.609 0 0 1-1.978-3.691zm-2.117 1.467c.694 1.153 1.39 2.302 2.076 3.46-.697.497-1.389 1-2.078 1.505-.007-1.655-.01-3.31.002-4.965zM51.47 10.237c-.59.395-1.186.784-1.791 1.156-.885.56-1.844.982-2.77 1.464.003 1.99-.006 3.98.002 5.97-.285.215-.601.386-.879.612l.12.209c.307-.21.611-.424.927-.622.795.77 1.602 1.528 2.403 2.29 1.499-1.126 2.969-2.293 4.453-3.44.19-.04.034-.352-.088-.231-.804.63-1.584 1.294-2.377 1.941-.621-.624-1.238-1.251-1.857-1.877-.2-.178-.081-.475-.092-.708 1.319-.991 2.597-2.039 3.918-3.025-.609-1.269-1.32-2.49-1.969-3.739zm-1.966 1.51c.68 1.12 1.303 2.278 1.93 3.43-.648.481-1.274.991-1.915 1.48-.03-1.636 0-3.274-.015-4.91zM89.776 10.242c-.65.383-1.29.777-1.918 1.19-.74.456-1.547.78-2.333 1.138.018 2.088.005 4.176.007 6.264-.263.266-.529.53-.784.801l.213-.014c.187-.202.381-.398.573-.595.883.731 1.753 1.478 2.63 2.217.144.141.308-.07.449-.12 1.41-.781 2.742-1.7 4.195-2.402.022-1.945.007-3.89.01-5.837.262-.265.527-.53.784-.8-.052 0-.154.005-.207.007-.244.203-.492.401-.738.602-.961-.816-1.918-1.639-2.881-2.45zm-1.644 1.443c.693.66 1.4 1.31 2.093 1.971-.007 2.071-.005 4.142-.005 6.213-.711-.631-1.386-1.3-2.088-1.942v-6.242z"/><path d="M105.051 14.882c1-1.554 2.022-3.094 3.048-4.633.44.38.994.62 1.572.679.567 0 1.05-.34 1.478-.682-.108.839-.384 1.71-1.02 2.293-.554.515-1.395.639-2.093.387a3.813 3.813 0 0 1-1.134-.636 2.85 2.85 0 0 0-.145.443c1.42 2.165 2.814 4.35 4.208 6.532.32-.21.601-.476.884-.735l.22.142c-1.003.905-2.038 1.774-3.066 2.651-1.322-2.144-2.614-4.306-3.952-6.44zM153.081 10.24c-.617.38-1.237.76-1.847 1.153-.844.593-1.812.963-2.707 1.464.01 1.99 0 3.981.005 5.97-.309.206-.614.417-.923.62l.16.198c.267-.2.507-.436.794-.61.802.755 1.64 1.468 2.452 2.21.078.126.191-.003.27-.054 1.464-1.142 2.933-2.278 4.399-3.416-.172-.305-.367-.01-.539.116-.688.567-1.376 1.133-2.066 1.698-.706-.652-1.388-1.328-2.107-1.964a6.167 6.167 0 0 1-.003-.614c1.374-1.008 2.733-2.04 4.096-3.063a421.57 421.57 0 0 0-1.984-3.708zm-2.119 1.502c.743 1.111 1.396 2.286 2.093 3.43-.707.49-1.395 1.01-2.098 1.504.012-1.644.001-3.29.005-4.934zM96.41 10.404c.556.512 1.023 1.115 1.539 1.669a64.942 64.942 0 0 0 1.652-1.67c.394.255.805.614 1.31.51.357-.024.542-.378.845-.522.001.752-.17 1.542-.66 2.126-.564.682-1.63.882-2.383.414-.29-.143-.482-.416-.752-.584.007 2.057.004 4.112.002 6.169.4.311.801.622 1.213.919.3-.199.53-.564.907-.599-.887.855-1.818 1.67-2.743 2.484-.695-.663-1.406-1.31-2.094-1.981-.268.243-.515.509-.77.765l-.164-.191c.337-.38.713-.722 1.058-1.094-.013-1.76.006-3.52-.01-5.278-.184-.445-.504-.83-.736-1.255-.318.19-.549.585-.944.599.898-.84 1.837-1.636 2.73-2.481zM132.445 12.604c.827-.733 1.635-1.484 2.467-2.21.596.665 1.213 1.312 1.798 1.987.878-.641 1.721-1.332 2.59-1.987.609.66 1.206 1.332 1.82 1.987.862-.66 1.713-1.334 2.58-1.986.593.668 1.203 1.32 1.803 1.983.367-.237.704-.521 1.077-.749.029.22-.17.32-.307.443-.2.163-.395.334-.595.496-.016 1.83.004 3.661-.01 5.492.344.361.696.717 1.054 1.065.19-.2.384-.395.568-.6l.223.141c-.906.904-1.84 1.78-2.77 2.657-.656-.783-1.344-1.541-1.984-2.338.156-.145.307-.295.457-.447.002-1.578 0-3.157 0-4.735-.496-.56-.989-1.12-1.5-1.665-.147.152-.295.303-.44.457-.003 1.974.007 3.948-.006 5.922.246.279.523.529.773.807-.672.602-1.318 1.234-1.985 1.842a92.128 92.128 0 0 1-1.84-2.018c.171-.214.516-.37.462-.696-.008-1.54.007-3.08-.008-4.619a18.812 18.812 0 0 0-1.364-1.687c-.14.15-.283.3-.427.448.004 1.912-.01 3.825.007 5.737.204.352.508.64.761.957a70.162 70.162 0 0 1-2.003 2.032c-.649-.782-1.32-1.544-1.974-2.322l.614-.478c-.005-1.615-.011-3.232.003-4.847-.382-.48-.802-.928-1.204-1.39-.285.214-.537.483-.863.634-.016-.15.13-.222.223-.313z"/><path d="M126.697 12.73c.855-.792 1.74-1.554 2.603-2.337.614.708 1.212 1.431 1.823 2.142.318-.252.603-.55.954-.758-.026.113-.056.23-.16.294-.263.221-.525.443-.79.658.004 1.834-.007 3.666.006 5.5.346.395.703.782 1.026 1.199.269-.166.493-.393.75-.578.054.03.163.087.218.116a74.86 74.86 0 0 1-2.629 2.354c-.591-.72-1.198-1.427-1.803-2.136-.263.242-.483.535-.771.745l-.163-.156c.256-.246.498-.507.758-.751.02-1.665 0-3.333.01-4.998-.016-.232.058-.506-.12-.69-.317-.4-.609-.818-.946-1.198-.25.205-.488.428-.766.594z"/></g></svg>