<svg width="165" height="26" viewBox="0 0 165 26" xmlns="http://www.w3.org/2000/svg"><title>washington post</title><g fill="#CBCBCB" fill-rule="evenodd"><path d="M9.494 8.149V17.1c1.202-.653 2.044-1.79 2.452-3.073l.097.049c-.265 3.194-2.43 6.387-5.796 6.387-3.39 0-5.892-2.54-5.892-6.605 0-3.049 1.972-4.96 4.497-6.678a4.384 4.384 0 0 0-1.13-.145C1.99 7.036.98 8.22.98 9.43H.836c-.024-.17-.024-.339-.024-.508 0-2.153 1.13-4.767 3.872-4.767 1.755 0 3.102 1.621 5.146 1.621.818 0 1.828-.387 2.236-1.282h.073c-.024 1.573-.505 3.194-2.645 3.654zm1.298 9.17c-1.202 1.282-2.5 2.371-4.184 2.371-3.126 0-5.53-2.468-5.53-6.049 0-2.105.865-3.242 1.827-4.573h-.097c-.6.605-2.188 2.13-2.188 4.718 0 3.968 2.477 6.412 5.723 6.412 2.26 0 3.8-1.572 4.497-2.855l-.048-.024zm.962-11.735c-.409.774-1.275 1.766-3.03 1.766S5.357 6.14 3.938 6.14c-1.298 0-2.188.872-2.525 1.525l.024.048c.457-.46 1.155-.92 2.285-.92 1.876 0 3.078 1.162 4.978 1.162 2.02 0 2.934-1.33 3.102-2.346l-.048-.025zm-6.686 1.67c-1.226 1.282-2.356 2.685-2.356 5.42 0 1.5.505 3.048 1.635 4.016l.697-.364V9.843l-.649.338-.12-.242L7.642 8.1c-.914-.192-1.732-.603-2.574-.845zm4.16.943c-.167.024-.336.024-.528.024a4.17 4.17 0 0 1-.962-.097v7.065l-3.15 1.719c.649.484 1.442.774 2.452.774.818 0 1.54-.17 2.189-.46V8.197zM5.767 9.431l-.457.266v6.485l.457-.242V9.43zm13.828.92v8.371c0 2.323-2.044 3.896-4.329 4.355l-.048-.096c1.13-.557 1.78-1.694 1.78-2.904v-8.662l-1.299-1.185-.505.556v6.75l.722.654v.049l-1.948 2.129-2.236-2.057v-.097l.865-.92V6.6l2.55-2.733.047.024v6.484L17.286 8.1l2.188 1.984.409-.436.192.17-.481.532zm-6.734 7.911v-.048l.505-.508V6.189l-.505.533v10.742l-.77.775v.048l1.876 1.693.337-.387-1.443-1.33zm4.906-7.234l-1.563-1.355-.337.363 1.395 1.259v8.71c0 .58-.12 1.185-.336 1.524l.024.024c.601-.436.817-1.089.817-1.935v-8.59zm5.651 4.186v1.234l2.333 1.838 1.347-1.451.192.193-3.126 3.363-3.174-2.564-.481.508-.193-.194.554-.58v-6.122L25.414 8.1l2.38 3.872-4.377 3.242zm-1.78 2.13v-6.147l-.504.364v6.024l2.982 2.444.385-.411-2.862-2.275zm1.829-7.453l-.049.024v4.96l2.14-1.573-2.091-3.411zm.625-.484l-.433.314 2.116 3.412.433-.315-2.116-3.41zM43.47 20.367l-3.343-2.903-2.55 2.903-3.462-3v-4.742h-.674c-.6 0-.913.387-1.058.847h-.072a3.867 3.867 0 0 1-.12-.92c0-.629.168-2.274 1.924-2.274V6.116c0-.798-.938-1.113-.938-2.177 0-1.38 1.299-2.734 3.68-3.581l.096.072c-.866.509-1.323.992-1.323 2.033 0 1.597 1.54 1.185 1.54 3.702v.967l2.813-2.976 2.958 2.928 2.79-2.928 2.693 2.662v8.952l-4.954 4.597zm-8.585-3.387v-5.105h-1.347c-.698 0-1.01.46-1.058.871l.023.024c.24-.266.481-.41 1.034-.41h.842v4.887l3.174 2.758.361-.436-3.03-2.589zm0-11.106c0-.992-.866-1.33-.866-1.96 0-.87.336-1.596.866-2.274l-.048-.024c-.722.557-1.395 1.452-1.395 2.323s.938 1.282.938 2.057v4.282h.505V5.874zm5.074 2.42l-1.828-1.79-.962.991v8.565l2.188 1.864.602-.678V8.294zm.769 8.638V7.955l-2.044-2.032-.385.387 1.924 1.863v9.025l3.247 2.83.384-.363-3.126-2.733zm4.665-8.953L43.88 6.528l-.866.895v8.613l2.357 2.081.023-.024V7.979zm.77-.338l-1.756-1.718-.36.387 1.61 1.549v10.113l.506-.484V7.641zM56.381 20.367l-2.284-2.08-2.044 2.08-2.501-2.226-.337.363-.193-.193.433-.46v-6.484l4.521-3.29 2.598 2.032.457-.484.192.194-.529.556v6.702l1.274 1.185.41-.435.192.17-2.189 2.37zm-6.156-2.685v-6.533l-.505.363v6.412l2.309 2.08.385-.386-2.19-1.936zm3.872-6.364L52.125 9.77l-.072.049v7.04l1.635 1.427.409-.41v-6.558zm.77 6.582v-6.944l-2.045-1.67-.48.338 2.02 1.598v6.92l2.02 1.838.36-.387-1.876-1.693zm8.512-5.42h2.477v5.178l-3.824 2.71c-.505-.581-1.226-.993-2.116-.993-.721 0-1.299.243-2.068.896l-.12-.049 3.27-4.79h-2.02v-4.5l4.017-2.807c.48.387.841.604 1.467.604.48 0 1.178-.097 1.707-.532l.096.048-2.886 4.235zm-2.693 6.194c-.698 0-1.25.242-1.732.58v.049c.385-.17.77-.218 1.13-.218.554 0 1.42.267 1.997.944l.553-.411c-.457-.533-1.01-.944-1.948-.944zm2.573-4.065h-1.347l-2.814 4.09.024.048c.698-.508 1.37-.847 2.189-.847.721 0 1.467.339 1.923.92l.025-.025V14.61zm-3.511 0v-3.895l-.505.363v4.065h1.947l.385-.533h-1.827zm5.026-4.742c-.505.363-.794.556-1.635.556-.482 0-1.059-.218-1.515-.702l-.048.025v3.532h.913L64.8 9.89l-.025-.023zm-1.154-.218a1.74 1.74 0 0 1-1.347-.702l-.601.411c.457.557.89.799 1.562.799.433 0 1.059-.121 1.708-.678l.024-.072c-.409.17-.913.242-1.346.242zm.408 4.162h-1.563l-.36.508h1.418v4.694l.505-.363v-4.84zm10.124-3.46v8.371c0 2.323-2.044 3.896-4.328 4.355l-.048-.096c1.13-.557 1.78-1.694 1.78-2.904v-8.662l-1.299-1.185-.505.556v6.75l.721.654v.049l-1.947 2.129-2.237-2.057v-.097l.866-.92V6.6l2.55-2.733.047.024v6.484L71.844 8.1l2.189 1.984.408-.436.193.17-.482.532zm-6.733 7.911v-.048l.505-.508V6.189l-.505.532v10.743l-.77.774v.048l1.876 1.694.337-.387-1.443-1.33zm4.906-7.234l-1.563-1.355-.337.363 1.395 1.259v8.71c0 .58-.12 1.185-.337 1.524l.025.024c.6-.436.817-1.089.817-1.935v-8.59zm6.204 9.34l-2.068-1.912-.481.508-.193-.194.554-.604v-6.993l-1.01-.968-.385.436-.193-.193 2.164-2.372 1.924 1.743.482-.533.216.17-.601.653v7.065l1.154 1.089.53-.557.192.194-2.285 2.467zm-1.419-2.372v-7.21l-1.25-1.161-.337.387 1.082 1.04v7.187l1.924 1.741.361-.387-1.78-1.597zm.722-10.113L75.86 6.068l1.804-1.935 1.972 1.814-1.804 1.936zM76.605 5.68l-.36.363 1.563 1.476.36-.412-1.563-1.427zM88.698 20.367l-2.092-1.911V11.39L85.33 10.23l-.674.726v6.532l.746.702v.096l-1.972 2.081-2.236-2.056v-.073l.866-.919v-6.097l-1.13-1.04-.458.507-.192-.193L82.469 8.1l2.188 1.96v.484L86.942 8.1l2.14 1.936.481-.508.217.193-.578.605v6.92l1.083 1.016.529-.58.192.193-2.308 2.492zm-6.349-2.105v-.048c0 .048.481-.484.481-.484v-6.872L81.46 9.6l-.338.363 1.203 1.113v6.387l-.746.775v.048l1.852 1.694.385-.411-1.467-1.307zm5.026-.193v-7.09l-1.49-1.354-.386.411 1.37 1.234v7.04l1.804 1.694.385-.411-1.683-1.524zm8.104 6.653c-.793-.87-1.346-1.233-2.092-1.233-.793 0-1.707.314-2.645.822l-.072-.072 3.318-3.871-2.356-1.887-.457.484-.193-.17.53-.58v-6.848l4.568-3.29 2.55 2.032.433-.484.192.194-.505.556v8.275c0 1.258.697 1.21.697 2.153 0 1.089-1.563 2.105-3.968 3.92zm-3.198-6.702v-6.847l-.505.364v6.702l2.38 1.935.362-.436-2.237-1.718zm1.683 4.84c-.793 0-1.515.242-2.188.701v.049c.433-.17.914-.387 1.731-.387.746 0 1.37.41 1.996 1.137l.481-.387c-.601-.702-1.323-1.113-2.02-1.113zm2.934-2.323c-.6-.387-.745-.799-.745-1.839v-.436l-3.993 4.646.025.024c.769-.46 1.467-.798 2.597-.798.962 0 1.611.386 2.357 1.016.457-.388.769-.774.769-1.38 0-.483-.409-.846-1.01-1.233zm-.745-9.219l-1.997-1.572-.048.048v7.428l1.54 1.21.505-.58v-6.534zm1.466 8.88c-.625-.484-.697-.895-.697-1.936v-7.355l-2.02-1.645-.457.315 1.972 1.572v7.452c0 1.04.048 1.331.697 1.766.578.388 1.034.799 1.034 1.355 0 .145-.024.387-.024.387l.024.025a.854.854 0 0 0 .265-.63c0-.532-.264-.895-.794-1.306zm5.772.17l-2.212-1.743-.457.508-.193-.193.53-.581V9.891h-1.396l-.048-.048.842-1.259h.6v-1.62l2.55-2.735.048.049v4.306h1.924l.048.049-.841 1.258h-1.13v7.331l1.322 1.017.505-.557.192.194-2.284 2.491zm-1.563-13.816l-.505.556v1.476h.505V6.552zm0 11.565V9.891h-.505v8.517l2.044 1.597.36-.387-1.9-1.5zm11.711-7.524v6.774l-4.064 3.025-3.054-2.323-.361.411-.192-.194.432-.483v-6.63l4.257-3.073 2.838 2.227.456-.484.193.193-.505.557zm-6.469 6.968v-6.605l-.505.362v6.509l2.886 2.226.457-.339-2.838-2.153zm3.872-6.17l-2.02-1.597-.024.024v7.21l2.044 1.549V11.39zm.77-.435l-2.237-1.743-.456.339 2.188 1.694v7.525l.505-.387v-7.428zm11.014 9.411l-2.093-1.911V11.39l-1.274-1.161-.674.726v6.532l.746.702v.096l-1.972 2.081-2.237-2.056v-.073l.866-.919v-6.097l-1.13-1.04-.457.507-.192-.193 2.188-2.396 2.188 1.96v.484L120.97 8.1l2.14 1.936.481-.508.216.193-.577.605v6.92l1.082 1.016.53-.58.192.193-2.308 2.492zm-6.35-2.105v-.048c0 .048.482-.484.482-.484v-6.872l-1.37-1.258-.337.363 1.202 1.113v6.387l-.745.775v.048l1.851 1.694.385-.411-1.467-1.307zm5.027-.193v-7.09l-1.491-1.354-.385.411 1.37 1.234v7.04l1.804 1.694.385-.411-1.683-1.524zM137.582 20.367c-.674-.725-.914-.968-1.708-1.185v4.742l-.048.024-.962-.871-2.79 2.589-.048-.024v-6.509c-.841.194-1.731.63-2.597 1.5l-.048-.024c.168-1.863 1.082-3.242 2.645-3.774v-4.718h-.505c-.697 0-1.082.363-1.419 1.016h-.072c-.072-.217-.12-.557-.12-1.113 0-1.016.745-2.08 1.972-2.08h.144V7.325l-.986-.895-.481.484-.169-.17 2.43-2.588 2.26 2.08V8.44l.529-.58V5.076h.264v2.54l3.198-3.46 2.718 2.493v10.525l-4.207 3.193zm-5.555-2.129c-.986.194-1.683.799-2.14 1.597l.024.049c.673-.581 1.298-.847 2.116-1.04v-.606zm.77-6.943h-1.323c-.914 0-1.275.58-1.299 1.258l.024.024c.289-.484.577-.654 1.154-.726h.938v13.186l.505-.484V11.295zm0-4.356l-1.203-1.113-.385.412 1.082.967v2.734h.505v-3zm2.813 1.379l-.529.557v14.009l.53.484V8.318zm3.15-.556l-1.419-1.307-1.466 1.597v8.517c1.25.121 2.116.484 2.861 1.306l.024-.024V7.761zm-2.885 10.476v.63c.817.193 1.154.435 1.73 1.112l.554-.435c-.577-.726-1.154-1.161-2.284-1.307zm3.655-10.863l-1.636-1.525-.384.411 1.515 1.404v11.25l.505-.387V7.375zm10.653 3.218v6.774l-4.065 3.025-3.054-2.323-.36.411-.193-.194.433-.483v-6.63l4.257-3.073 2.837 2.227.457-.484.193.193-.505.557zm-6.469 6.968v-6.605l-.505.362v6.509l2.886 2.226.457-.339-2.838-2.153zm3.872-6.17l-2.02-1.597-.024.024v7.21l2.044 1.549V11.39zm.77-.435l-2.237-1.743-.457.339 2.188 1.694v7.525l.505-.387v-7.428zm7.406 1.524h2.477v5.178l-3.824 2.71c-.505-.581-1.226-.993-2.116-.993-.721 0-1.298.243-2.068.896l-.12-.049 3.27-4.79h-2.02v-4.5l4.016-2.807c.481.387.842.604 1.467.604.481 0 1.178-.097 1.708-.532l.096.048-2.886 4.235zm-2.694 6.194c-.697 0-1.25.242-1.73.58v.049c.384-.17.768-.218 1.13-.218.553 0 1.418.267 1.995.944l.553-.411c-.456-.533-1.01-.944-1.948-.944zm2.574-4.065h-1.347l-2.813 4.09.024.048c.697-.508 1.37-.847 2.188-.847.721 0 1.467.339 1.924.92l.024-.025V14.61zm-3.511 0v-3.895l-.505.363v4.065h1.947l.385-.533h-1.827zm5.026-4.742c-.506.363-.794.556-1.636.556-.481 0-1.058-.218-1.515-.702l-.048.025v3.532h.913l2.31-3.388-.024-.023zm-1.155-.218c-.433 0-.986-.218-1.346-.702l-.601.411c.457.557.89.799 1.563.799.433 0 1.058-.121 1.707-.678l.024-.072c-.409.17-.914.242-1.347.242zm.41 4.162h-1.564l-.36.508h1.418v4.694l.505-.363v-4.84zm5.819 6.556l-2.213-1.742-.457.508-.192-.193.529-.581V9.891h-1.395l-.048-.048.842-1.259h.6v-1.62l2.55-2.735.048.049v4.306h1.924l.048.049-.842 1.258h-1.13v7.331l1.323 1.017.505-.557.192.194-2.284 2.491zm-1.563-13.815l-.505.556v1.476h.505V6.552zm0 11.565V9.891h-.505v8.517l2.044 1.597.36-.387-1.9-1.5z"/></g></svg>