<svg width="107" height="20" viewBox="0 0 107 20" xmlns="http://www.w3.org/2000/svg"><title>BuzzFeed</title><g fill="#CBCBCB" fill-rule="evenodd"><path d="M.806.586C3.783.59 6.762.545 9.738.613c2.294.053 4.091 1.615 4.478 3.749.438 2.415-.812 4.477-2.74 5.03-.05.015-.09.06-.155.107 1.838.527 2.935 1.747 3.244 3.574.51 3.015-1.15 5.493-4.284 5.843-.695.078-1.4.076-2.102.08-2.457.013-4.915.012-7.373.017V.586zm3.958 14.91c.051.017.102.05.153.05 1.234.002 2.47.045 3.7-.013 1.274-.06 2.032-.846 2.066-2.002.034-1.162-.666-2-1.914-2.15-.788-.095-1.594-.052-2.392-.063-.528-.008-1.057-.002-1.613-.002v4.18zm-.027-7.608c1.15 0 2.242.002 3.334-.002.21 0 .425.001.63-.04.77-.155 1.351-.552 1.553-1.358.322-1.284-.494-2.394-1.82-2.46-.617-.03-1.236-.008-1.854-.009H4.764c-.012.133-.026.214-.026.295-.002 1.167-.001 2.334-.001 3.574zM71.8 19.351c-.465-.087-.935-.153-1.395-.264-3.6-.865-5.434-3.97-5.12-7.403.264-2.874 1.71-4.975 4.462-5.948 3.843-1.358 8.3.476 8.957 5.602.087.677.082 1.366.124 2.11h-9.925c.23 1.263.866 2.15 1.973 2.62 1.8.766 3.487.384 5.077-.642.094-.06.18-.132.272-.198.009-.006.026 0 .09 0l1.553 2.292c-.512.32-.984.667-1.5.926-.949.479-1.97.732-3.03.82-.12.01-.238.056-.357.085h-1.18zm3.602-8.328c.07-1.655-1.504-2.92-3.495-2.84-1.657.065-3.13 1.472-2.952 2.84h6.447zM86.05 19.351c-.572-.115-1.154-.197-1.716-.352-2.683-.742-4.534-3.017-4.777-5.797-.23-2.622.528-4.844 2.628-6.498 3.181-2.507 9.435-1.938 10.677 3.993.089.425.14.86.168 1.294.028.46.006.925.006 1.457h-9.859c.086.742.373 1.338.85 1.83 1.09 1.13 2.45 1.341 3.921 1.083.937-.165 1.802-.522 2.58-1.19l1.588 2.332c-.413.277-.788.57-1.2.796-1.021.56-2.127.856-3.286.965-.134.012-.266.057-.399.087h-1.18zm-2.85-8.33h6.455c.082-1.605-1.453-2.879-3.383-2.841-1.712.033-3.195 1.39-3.071 2.84zM20.789 19.351c-.422-.086-.846-.161-1.265-.261-2.593-.62-4.124-2.565-4.126-5.24-.002-2.563 0-5.127 0-7.69V5.7h3.504v.49c0 2.423.007 4.845-.004 7.268-.004 1.099.33 2.03 1.37 2.508 1.125.518 2.278.499 3.32-.245.762-.544.978-1.377.98-2.273.004-2.409.001-4.817.001-7.226v-.53h3.467v8.082c-.002 3.059-1.902 5.162-4.946 5.483-.15.015-.297.062-.446.094h-1.855zM53.878 18.97V.599h12.747V2.38c0 .395-.026.792.008 1.183.033.39-.123.466-.48.464-2.516-.015-5.031-.008-7.546-.008h-.796v3.869h.475c1.897 0 3.794.01 5.69-.01.384-.003.474.119.465.482-.024.968-.008 1.937-.008 2.953h-6.65v7.658h-3.905zM93.924 18.964v-.484V6.146c0-.54.001-.545.557-.54 1.923.018 3.854-.064 5.767.084 2.727.212 4.86 1.443 5.87 4.14 1.027 2.742.245 5.871-1.841 7.586-1.229 1.01-2.675 1.507-4.233 1.563-1.978.072-3.96.023-5.94.024-.04 0-.08-.017-.18-.04zm3.342-2.82h1.93c2.263 0 3.688-1.28 3.941-3.537.182-1.62-.692-3.233-2.085-3.805-1.227-.504-2.508-.236-3.786-.307v7.649zM35.1 8.702h-5.937V5.687h10.734c0 .569-.029 1.14.008 1.708.034.523-.125.927-.454 1.338-1.786 2.227-3.543 4.476-5.309 6.719-.095.12-.185.244-.333.44h6.159v3.072H29.13c0-.84-.012-1.678.012-2.516.004-.144.148-.294.25-.424 1.812-2.313 3.627-4.624 5.441-6.936.076-.097.14-.202.267-.386zM40.927 8.705l.001-2.696c0-.096.016-.192.028-.317h10.7c0 .81.01 1.608-.009 2.405-.003.12-.12.247-.205.355-1.843 2.344-3.689 4.686-5.533 7.029-.09.115-.172.239-.314.437h.537c1.742 0 3.484.007 5.226-.006.324-.003.444.077.435.423-.024.87-.008 1.74-.008 2.637H40.937c0-.869-.006-1.723.01-2.577.001-.106.113-.218.19-.316 1.769-2.258 3.54-4.515 5.311-6.772.136-.173.268-.348.464-.602h-5.985z"/></g></svg>