<svg width="41" height="21" viewBox="0 0 41 21" xmlns="http://www.w3.org/2000/svg"><title>tc</title><g fill="#CBCBCB" fill-rule="evenodd"><path d="M.069.07h20.425c.003 2.316.001 4.633.002 6.949-2.27 0-4.54-.002-6.808 0-.003 4.633 0 9.265-.003 13.898-2.278.001-4.557.002-6.836 0-.011-4.622-.004-9.244-.004-13.866-2.258-.004-4.518-.027-6.776-.034C.067 4.702.067 2.386.069.07zM27.306.07h13.617c.002 2.316.001 4.632 0 6.947-4.54.003-9.079.001-13.618.002 0-2.316-.001-4.633.001-6.949zM20.496 7.019h6.809v6.948c4.54.003 9.079-.001 13.618.002.001 2.316.002 4.631 0 6.948H20.497c-.003-4.633 0-9.266-.001-13.898z"/></g></svg>