<svg width="142" height="142" viewBox="0 0 142 142" xmlns="http://www.w3.org/2000/svg"><title>vba-logo-black</title><g fill="none" fill-rule="evenodd"><path fill="#2D2D2D" d="M.06 142h141.68V.268H.06z"/><path d="M86.694 69.914c-1.945 0-2.364 2.436-2.364 3.939h3.594c.615 0 .788-.173.788-.812 0-1.083-.245-3.127-2.018-3.127zm37.593-44.065c0 1.379.815 2.241 1.971 2.241.763 0 1.846-.419 1.869-1.97v-3.519c-.565.294-1.5.614-2.41 1.058-.986.467-1.43 1.008-1.43 2.19zm9.527 44.187l-.516.049c-.714.075-.959.468-1.379 1.453-1.205 2.879-2.954 7.36-4.43 11.372-1.28 3.57-2.462 4.284-3.914 4.284-1.083 0-1.896-.615-1.896-1.477 0-.838.739-1.748 1.403-1.748.37 0 .565.099.984.468.346.296.616.418.887.418.469 0 .764-.491 1.01-1.156.172-.492.246-.986.222-1.429a2.889 2.889 0 0 0-.173-.788 370.025 370.025 0 0 0-4.087-10.264c-.295-.689-.542-.984-.96-1.058l-.837-.124v-.861h6.425v.861l-.961.099c-.466.05-.466.345-.318.813.811 2.412 1.747 4.849 2.658 7.31h.047a176.5 176.5 0 0 0 2.438-7.31c.147-.492 0-.763-.368-.788l-1.108-.124v-.861h4.873v.861zm-18.956 11.497c-3.544 0-5.758-2.069-5.758-6.228 0-1.945.54-3.546 1.575-4.678 1.01-1.107 2.535-1.749 4.553-1.749 2.412 0 4.579 1.036 4.579 2.585 0 1.035-1.132 1.43-1.87 1.43-.592 0-.862-.271-1.009-.763-.444-1.428-.961-2.216-1.92-2.216-1.306 0-2.463 1.378-2.463 4.874 0 3.274 1.232 5.095 3.3 5.095 1.525 0 2.484-.714 3.298-2.387l.812.368c-.863 2.905-3.15 3.669-5.097 3.669zm-6.992-.296h-6.425v-.862l.64-.048c.664-.05.86-.222.86-1.132v-6.081c0-1.724-.786-2.536-2.165-2.536-1.132 0-1.944.64-2.339 1.403-.195.369-.246.837-.246 1.428v5.786c0 .91.199 1.082.886 1.132l.617.048v.862h-6.401v-.862c1.526-.073 1.674-.172 1.674-1.28v-7.433c0-.936-.172-1.109-.64-1.182l-.911-.124v-.787l4.432-.691.343 1.773c1.577-.984 2.734-1.773 4.284-1.773 2.463 0 3.692 1.453 3.692 3.842v6.375c0 1.108.172 1.207 1.699 1.28v.862zm-20.139-1.354c1.673 0 2.684-.935 3.397-2.363l.837.468c-.787 2.092-2.315 3.545-5.169 3.545-4.309.024-5.933-2.734-5.933-6.303 0-1.723.444-3.322 1.428-4.48.984-1.157 2.462-1.872 4.481-1.872 5.02 0 5.366 3.669 5.366 5.047 0 .813-.444 1.01-1.207 1.01h-6.622c0 2.585.739 4.948 3.422 4.948zm-9.331-6.893c0 2.929-2.609 3.988-5.317 3.988-.272 0-.689 0-1.157-.049-.345.074-1.083.394-1.083 1.009 0 .469.393.887 1.599.887h2.363c2.61 0 4.825.934 4.825 3.815 0 1.625-.886 2.831-2.117 3.545-1.256.739-2.805 1.009-4.332 1.009-1.575 0-3.028-.27-4.037-.862-.96-.566-1.625-1.526-1.625-2.708 0-1.722 1.798-2.239 2.832-2.509v-.05c-1.108-.173-2.217-1.157-2.217-2.167 0-.96.985-1.773 2.487-2.24v-.049c-1.354-.246-2.881-1.429-2.881-3.568 0-1.873 1.33-4.163 5.516-4.163 1.254 0 2.632.322 3.396.789l3.101-1.034.247.245-.493 1.749-1.747.296c.368.418.64 1.207.64 2.067zm-14.871 8.543c-1.083 0-1.476-.641-1.821-1.453-.837.567-2.018 1.453-3.519 1.453-2.413 0-3.693-1.675-3.693-3.545 0-1.379.615-2.412 2.584-3.053 1.625-.518 3.422-1.034 4.579-1.699v-1.278c0-1.602-.862-2.044-1.65-2.044-.811 0-1.673.442-2.314 2.436-.171.543-.442.886-.96.886-.541 0-1.87-.418-1.87-1.403 0-1.526 2.191-2.955 5.489-2.955 4.111 0 4.431 1.971 4.431 3.497v5.662c0 1.501.444 1.846.813 1.945.37.098.862.123 1.205.073l.099.739c-.862.369-2.239.739-3.373.739zm-12.11-29.565v-6.179c0-.936-.173-1.108-.665-1.181l-.886-.125v-.787l4.603-.689.173.149v8.049c0 1.919.91 2.756 2.189 2.756 1.134 0 1.995-.664 2.339-1.428.148-.32.198-.91.198-1.426v-5.318c0-.936-.172-1.108-.665-1.181l-.887-.125v-.787l4.605-.689.171.149v10.068c0 1.107.172 1.205 1.675 1.28v.86h-4.678l-.221-1.403c-.887.468-2.314 1.699-4.406 1.699-1.798 0-3.545-.837-3.545-3.692zm-9.431 3.692c-1.698 0-2.806-.393-3.691-.886l-1.207.886-.69-.345V39.88c0-.958-.172-1.131-.664-1.205l-.887-.148v-.788l4.604-.639.173.147v7.484c1.083-.764 2.362-1.724 4.037-1.724 3.175 0 4.651 2.708 4.651 5.958 0 5.366-2.904 6.695-6.326 6.695zm13.591-38.229h6.179v.861l-.986.123c-.468.05-.516.247-.369.714.173.468 1.132 3.25 1.305 3.742l1.305 3.741h.073l1.404-4.061a45.063 45.063 0 0 0 1.058-3.372c.123-.444.049-.714-.394-.764l-1.106-.123v-.861h4.946v.861c-1.058.049-1.328.198-1.723 1.059-.393.861-1.108 2.412-1.796 4.283l-2.142 5.858h-2.364l-1.92-5.292c-.59-1.649-1.156-3.224-1.796-4.824-.345-.838-.641-1.011-1.674-1.084v-.861zM69.46 50.516c-2.093-.715-3.741-1.773-3.741-3.717 0-2.438 1.845-3.792 4.725-3.792 1.231 0 2.585.245 3.521.838v3.151h-.838c-.368-1.748-1.402-2.955-2.757-2.955-1.107 0-1.796.69-1.82 1.625 0 1.157 1.254 1.699 2.535 2.141 2.362.838 3.692 1.848 3.692 3.989 0 2.388-1.871 3.864-4.875 3.864-1.403 0-3.174-.345-4.06-1.156l-.272-3.546h.837c.591 2.067 1.822 3.668 3.595 3.668 1.157 0 1.895-.639 1.895-1.698 0-1.329-1.305-2.018-2.437-2.412zm-.246-21.885c1.525-.073 1.698-.173 1.698-1.28v-7.434c0-.935-.173-1.108-.641-1.182l-.884-.123v-.787l4.578-.691.172.149v10.068c0 1.107.173 1.207 1.699 1.28v.861h-6.622v-.861zm3.224-16.813c1.231 0 1.995.862 1.995 1.92-.026 1.059-.813 1.92-1.995 1.92-1.206 0-1.968-.861-1.968-1.92 0-1.058.762-1.92 1.968-1.92zm3.744 42.686c1.526-.075 1.698-.173 1.698-1.28v-7.435c0-.936-.172-1.108-.64-1.181l-.886-.125v-.787l4.58-.689.17.149v10.068c0 1.107.173 1.205 1.7 1.28v.86h-6.622v-.86zm5.22-14.894c-.025 1.059-.814 1.92-1.995 1.92-1.207 0-1.969-.861-1.969-1.92 0-1.058.762-1.92 1.969-1.92 1.231 0 1.995.862 1.995 1.92zm-2.907-20.604c.985-1.157 2.462-1.872 4.482-1.872 5.02 0 5.365 3.67 5.365 5.047 0 .814-.444 1.009-1.205 1.009h-6.622c0 2.585.737 4.949 3.422 4.949 1.671 0 2.682-.935 3.396-2.364l.836.469c-.787 2.092-2.314 3.545-5.169 3.545-4.309.023-5.933-2.733-5.933-6.302 0-1.724.445-3.324 1.428-4.481zm14.451 24.001c2.463 0 3.693 1.452 3.693 3.84v6.377c0 1.107.172 1.205 1.699 1.28v.86h-6.426v-.86l.641-.05c.664-.05.861-.222.861-1.132v-6.081c0-1.722-.787-2.535-2.167-2.535a2.587 2.587 0 0 0-2.338 1.402c-.196.37-.247.838-.247 1.428v5.786c0 .91.198 1.082.888 1.132l.614.05v.86h-6.399v-.86c1.525-.075 1.674-.173 1.674-1.28v-7.435c0-.936-.172-1.108-.641-1.181l-.91-.125v-.787l4.431-.689.343 1.773c1.577-.985 2.734-1.773 4.284-1.773zm-3.444-14.376c1.525-.073 1.673-.173 1.673-1.28v-7.434c0-.935-.173-1.108-.641-1.182l-.91-.123v-.787l4.43-.691.345 1.774c1.576-.985 2.733-1.774 4.283-1.774 2.462 0 3.692 1.453 3.692 3.842v6.375c0 1.107.173 1.207 1.699 1.28v.861h-6.424v-.861l.639-.049c.666-.05.862-.222.862-1.132v-6.08c0-1.725-.788-2.537-2.167-2.537a2.58 2.58 0 0 0-2.337 1.404c-.197.368-.247.837-.247 1.428v5.785c0 .91.198 1.082.885 1.132l.616.049v.861h-6.398v-.861zm16.938 25.38c1.672 0 2.683-.935 3.397-2.363l.837.468c-.787 2.092-2.315 3.544-5.169 3.544-4.31.024-5.934-2.732-5.934-6.302 0-1.724.444-3.322 1.429-4.479.983-1.158 2.46-1.872 4.479-1.872 5.023 0 5.366 3.668 5.366 5.047 0 .812-.443 1.008-1.205 1.008h-6.622c0 2.586.737 4.949 3.422 4.949zm-1.403-25.38c1.526-.073 1.673-.173 1.673-1.28v-7.434c0-.935-.173-1.108-.641-1.182l-.91-.123v-.787l4.43-.691.346 1.774c1.575-.985 2.732-1.774 4.282-1.774 2.462 0 3.693 1.453 3.693 3.842v6.375c0 1.107.173 1.207 1.698 1.28v.861h-6.423v-.861l.638-.049c.666-.05.863-.222.863-1.132v-6.08c0-1.725-.788-2.537-2.167-2.537a2.579 2.579 0 0 0-2.337 1.404c-.198.368-.247.837-.247 1.428v5.785c0 .91.197 1.082.884 1.132l.618.049v.861h-6.4v-.861zm12.801 19.176c2.363.838 3.692 1.848 3.692 3.989 0 2.388-1.87 3.864-4.873 3.864-1.402 0-3.175-.345-4.061-1.156l-.271-3.546h.836c.591 2.067 1.821 3.668 3.594 3.668 1.157 0 1.897-.639 1.897-1.698 0-1.329-1.306-2.018-2.439-2.412-2.093-.715-3.74-1.773-3.74-3.717 0-2.438 1.845-3.792 4.725-3.792 1.232 0 2.585.245 3.522.838v3.151h-.838c-.369-1.748-1.403-2.955-2.758-2.955-1.106 0-1.796.69-1.821 1.625 0 1.157 1.255 1.699 2.535 2.141zm9.331 2.709c-2.092-.715-3.741-1.773-3.741-3.717 0-2.438 1.846-3.792 4.727-3.792 1.23 0 2.584.245 3.52.838v3.151h-.837c-.37-1.748-1.403-2.955-2.758-2.955-1.107 0-1.797.69-1.822 1.625 0 1.157 1.257 1.699 2.536 2.141 2.362.838 3.692 1.848 3.692 3.989 0 2.388-1.871 3.864-4.874 3.864-1.402 0-3.174-.345-4.061-1.156l-.271-3.546h.837c.59 2.067 1.821 3.668 3.593 3.668 1.157 0 1.897-.639 1.897-1.698 0-1.329-1.304-2.018-2.438-2.412zm-.69-32.347c-.812 0-1.673.443-2.314 2.436-.173.543-.442.887-.961.887-.54 0-1.869-.418-1.869-1.403 0-1.527 2.189-2.955 5.488-2.955 4.112 0 4.432 1.971 4.432 3.497v5.662c0 1.5.443 1.846.811 1.944.371.099.863.123 1.206.074l.099.739c-.862.368-2.24.739-3.372.739-1.083 0-1.478-.64-1.822-1.453-.835.566-2.018 1.453-3.521 1.453-2.411 0-3.691-1.675-3.691-3.545 0-1.379.615-2.412 2.585-3.054 1.625-.516 3.421-1.033 4.577-1.698v-1.28c0-1.6-.86-2.043-1.648-2.043zM42.157 44.706c-1.181 0-1.97.641-2.315 1.502-.171.368-.22.836-.22 1.402v3.889c0 .518.024 1.034.172 1.552.296.885.984 1.575 2.24 1.575 2.042 0 2.83-1.969 2.83-5.218 0-4.061-1.551-4.702-2.707-4.702zm42.764-23.41c0-1.084-.246-3.127-2.019-3.127-1.945 0-2.363 2.436-2.363 3.939h3.593c.616 0 .789-.172.789-.812zM73.227 69.914c-1.084 0-2.118.861-2.118 3.076 0 1.847.911 2.955 2.092 2.955 1.231 0 2.093-1.108 2.093-2.955 0-2.191-1.01-3.076-2.067-3.076zm.565 16.246c1.6 0 3.175-.788 3.175-2.633 0-1.601-1.451-2.069-3.52-2.069-1.131 0-1.894.125-2.313.419-.395.295-.664.812-.664 1.527 0 1.772 1.5 2.756 3.322 2.756zm-15.978-8.566c0 1.378.813 2.24 1.97 2.24.763 0 1.846-.418 1.871-1.97v-3.519c-.566.295-1.502.614-2.413 1.058-.984.468-1.428 1.009-1.428 2.191zm47.591-33.553c-1.945 0-2.362 2.437-2.362 3.939h3.594c.615 0 .788-.173.788-.813 0-1.083-.247-3.126-2.02-3.126z" fill="#FFF"/></g></svg>